<svg width="64" height="64" viewBox="0 0 64 64" fill="none" xmlns="http://www.w3.org/2000/svg">
<path d="M58.3323 43.0007C51.4142 56.4128 36.2575 62.3602 24.4787 56.2849C12.6997 50.2095 8.75904 34.4117 15.6769 20.9996C22.5947 7.5875 37.7514 1.63996 49.5303 7.71539C61.3093 13.7908 65.2501 29.5886 58.3323 43.0007Z" fill="#FFF5F5"/>
<path d="M39.0405 18.1155L39.0259 18.0593C38.5517 16.2427 37.4673 14.6445 35.9544 13.5327C34.4415 12.4209 32.5923 11.8632 30.717 11.9533C27.9686 12.0851 23.4889 12.6243 19.3045 13.2639C15.1201 13.9036 10.6839 14.7275 8.02165 15.4227C6.20512 15.8971 4.60698 16.9817 3.49536 18.4947C2.38374 20.0077 1.82628 21.8569 1.9165 23.7323L1.91918 23.7895C2.0282 26.071 1.89868 26.4595 2.62278 31.1962C3.34689 35.9329 3.64823 36.6684 4.22581 38.8782L4.24035 38.9336C4.71427 40.7503 5.79872 42.3486 7.31163 43.4603C8.82453 44.572 10.6739 45.1294 12.5491 45.0389C15.2975 44.9071 19.7773 44.3687 23.9618 43.729C28.1461 43.0893 32.5823 42.2655 35.2437 41.5696C37.0605 41.0958 38.659 40.0114 39.7709 38.4984C40.8827 36.9855 41.4402 35.1361 41.3498 33.2607L41.3469 33.2027C41.2379 30.9212 41.3057 30.1286 40.5818 25.3934C39.8579 20.6582 39.6181 20.3253 39.0405 18.1155ZM11.8264 20.8857C12.6789 20.7547 13.551 20.8794 14.3326 21.2441C15.1141 21.6088 15.77 22.1972 16.2171 22.9347C16.6642 23.6723 16.8825 24.5258 16.8444 25.3875C16.8063 26.2491 16.5135 27.08 16.0031 27.7752C15.4926 28.4704 14.7875 28.9985 13.9767 29.2929C13.1661 29.5872 12.2863 29.6345 11.4487 29.4287C10.6112 29.2229 9.85349 28.7734 9.27147 28.1368C8.68949 27.5004 8.30933 26.7055 8.17915 25.8529C8.00453 24.7107 8.29061 23.5458 8.97456 22.6143C9.65845 21.6829 10.6843 21.0612 11.8264 20.8857ZM21.2667 34.497L21.2695 34.5156C21.2938 35.1616 21.1188 35.7994 20.7681 36.3425C20.4259 36.8933 19.9157 37.3195 19.3129 37.5582C18.4539 37.8951 16.2682 38.4318 14.8826 38.6345C13.5044 38.8801 10.7536 39.0806 9.83237 39.0052C9.18565 38.9579 8.57131 38.7035 8.08043 38.2798C7.58368 37.8665 7.22608 37.3103 7.05616 36.6868L7.05323 36.6676C6.93717 36.2169 6.85269 35.7589 6.80037 35.2965C6.72416 34.9182 6.67989 34.5341 6.66811 34.1483L6.66528 34.1298C6.6376 33.5156 6.82181 32.9104 7.18699 32.4158C7.55371 31.9164 8.0792 31.5565 8.67739 31.3951C9.55264 31.1649 12.2578 30.696 13.6361 30.4853C15.0143 30.2746 17.2352 29.9875 18.1412 29.9483C18.7604 29.9236 19.3695 30.1104 19.8685 30.4779C20.3628 30.8421 20.7172 31.3647 20.8726 31.9587L20.8754 31.9772C20.9777 32.3488 21.0581 32.7262 21.1164 33.1072C21.1905 33.5676 21.2401 34.0316 21.2652 34.4972L21.2667 34.497ZM30.698 31.7108L25.6514 32.4823C25.4346 32.5154 25.2135 32.5055 25.0006 32.4532C24.7877 32.4009 24.5871 32.3071 24.4105 32.1773C24.2338 32.0475 24.0844 31.8841 23.9709 31.6966C23.8573 31.5091 23.7819 31.3009 23.7487 31.0843C23.7156 30.8675 23.7255 30.6464 23.7778 30.4335C23.8301 30.2206 23.9239 30.02 24.0537 29.8434C24.1835 29.6667 24.3469 29.5173 24.5344 29.4038C24.722 29.2902 24.93 29.2148 25.1468 29.1816L30.1934 28.4101C30.6311 28.3432 31.0774 28.4529 31.4342 28.7151C31.791 28.9773 32.0291 29.3705 32.096 29.8082C32.1629 30.2459 32.0532 30.6922 31.791 31.0491C31.5289 31.4059 31.1356 31.6439 30.698 31.7108ZM34.8222 25.258L24.7816 26.7929C24.3485 26.8497 23.9103 26.7346 23.561 26.4723C23.2117 26.2099 22.9792 25.8211 22.9132 25.3892C22.8471 24.9574 22.953 24.5169 23.2079 24.1621C23.4628 23.8074 23.8466 23.5666 24.2769 23.4915L34.3167 21.9567C34.7499 21.8998 35.188 22.0149 35.5373 22.2773C35.8866 22.5397 36.1192 22.9285 36.1852 23.3603C36.2512 23.7921 36.1454 24.2327 35.8905 24.5874C35.6356 24.9422 35.2518 25.1829 34.8214 25.2581L34.8222 25.258Z" fill="#FFDFDF"/>
<path d="M53.497 25.4927L50.7142 24.0142L42.8842 36.3674L47.642 38.8953L53.497 25.4927Z" fill="#FFDFDF"/>
<path d="M47.2836 39.4877L42.5957 36.9966L40.7833 42.7065L43.566 44.185L47.2836 39.4877Z" fill="#FFDFDF"/>
<path d="M41.7568 47.4672L42.9455 44.3028L41.0089 43.2964L39.2302 45.7488C39.2302 45.7488 39.7884 47.9303 38.7771 49.5332C38.7771 49.5332 40.0169 47.7965 41.7568 47.4672ZM40.8169 46.9327C40.5653 47.0098 40.2988 46.8682 40.2218 46.6165C40.1448 46.3649 40.2864 46.0984 40.538 46.0213C40.7897 45.9443 41.0561 46.0859 41.1332 46.3376C41.2102 46.5892 41.0686 46.8557 40.8169 46.9327Z" fill="#FFDFDF"/>
<path d="M50.9564 23.4952L53.5232 24.8591C52.905 22.8188 50.9564 23.4952 50.9564 23.4952Z" fill="#FFDFDF"/>
</svg>
