<svg width="80" height="80" viewBox="0 0 80 80" fill="none" xmlns="http://www.w3.org/2000/svg">
<rect width="80" height="80" fill="#FFF5F5"/>
<path d="M40 16C44.2435 16 48.3131 17.6857 51.3135 20.6863C54.3145 23.6869 56 27.7565 56 32C56 36.2435 54.3145 40.3132 51.3135 43.3137C48.3131 46.3143 44.2435 48 40 48C35.7565 48 31.6868 46.3143 28.6863 43.3137C25.6857 40.3132 24 36.2435 24 32C24 27.7565 25.6857 23.6869 28.6863 20.6863C31.6868 17.6857 35.7565 16 40 16ZM40 56C57.68 56 72 63.16 72 72V80H8V72C8 63.16 22.32 56 40 56Z" fill="#FFDDDD"/>
</svg>
