<svg width="64" height="64" viewBox="0 0 64 64" fill="none" xmlns="http://www.w3.org/2000/svg">
<path d="M58.3323 43.0007C51.4142 56.4128 36.2575 62.3602 24.4787 56.2849C12.6997 50.2095 8.75904 34.4117 15.6769 20.9996C22.5947 7.5875 37.7514 1.63996 49.5303 7.71539C61.3093 13.7908 65.2501 29.5886 58.3323 43.0007Z" fill="#FFF5F5"/>
<path d="M38.6262 15.222L33.3447 15.9643C33.2854 15.5418 33.2408 15.2249 33.1815 14.8024C33.1072 14.2743 32.5197 13.926 31.9915 14.0002L12.9784 16.6723C12.4503 16.7465 11.9815 17.2433 12.0557 17.7714C12.1151 18.1939 12.054 18.5257 12.1134 18.9482L6.93757 19.6756C6.30381 19.7647 5.95555 20.3522 6.02973 20.8803L6.20792 22.1479C7.00952 27.8518 11.7971 32.0261 17.5142 32.0844C18.2964 33.0516 19.1694 33.8984 20.0424 34.7451L30.1827 33.32C30.8942 32.2505 31.5 31.196 31.8797 30.0655C37.3443 28.328 40.7958 22.9957 40.009 17.3975L39.8309 16.1299C39.7567 15.6017 39.1543 15.1479 38.6262 15.222ZM8.32045 21.851L8.2908 21.6397L12.4103 21.0608C12.9613 24.2148 14.0107 27.0833 15.7847 29.7423C11.9096 28.9943 8.88456 25.8649 8.32045 21.851ZM28.0165 24.0378L26.7455 25.7244L27.3593 27.7924C27.5095 28.0945 27.3427 28.441 27.1612 28.682C27.0704 28.8025 26.874 28.9378 26.6627 28.9675C26.5571 28.9823 26.3458 29.012 26.2254 28.9212L24.2961 28.2229L22.634 29.426C22.3468 29.6818 22.0151 29.6207 21.6685 29.4539C21.3219 29.2872 21.1718 28.9852 21.2328 28.6535L21.2528 26.4963L19.5662 25.2254C19.3253 25.0438 19.1602 24.6361 19.2214 24.3044C19.2824 23.9727 19.5696 23.7169 19.8717 23.5667L21.8341 22.9678L22.5175 20.9329C22.5786 20.6011 22.8658 20.3454 23.2883 20.2859C23.6052 20.2414 23.9518 20.4081 24.2076 20.6953L25.4255 22.4631L27.4769 22.4979C27.8087 22.5589 28.1552 22.7257 28.3054 23.0277C28.2443 23.3595 28.1981 23.7968 28.0165 24.0378ZM37.8965 17.6943C38.4606 21.7082 36.4154 25.5503 32.8966 27.3373C33.7781 24.4129 33.9962 21.3662 33.6416 18.0769L37.8668 17.4831L37.8965 17.6943ZM29.5142 35.4605L21.2751 36.6184C21.5126 38.3085 20.9051 40.1173 19.5582 42.03C19.2858 42.3914 19.5862 42.9955 20.1143 42.9213L32.5785 41.1696C33.1066 41.0954 33.2288 40.4319 32.8674 40.1595C30.8194 38.6162 29.7368 37.0449 29.5142 35.4605Z" fill="#FFDFDF"/>
<path d="M34.052 43.2241L19.0527 45.3321C18.5246 45.4063 18.1614 45.8882 18.2357 46.4163L18.6365 49.2683C18.7256 49.9021 19.2075 50.2652 19.8412 50.1762L34.6292 48.0978C35.263 48.0087 35.6261 47.5269 35.5371 46.8931L35.1214 43.9355C35.062 43.513 34.5801 43.1498 34.052 43.2241Z" fill="#FFDFDF"/>
<path d="M51.613 37.8006L52.6581 36.4935L54.2965 36.1502L54.6736 34.5198L56 33.5003L55.6293 31.8676L56.384 30.3731L55.344 29.063L55.3723 27.3899L53.8656 26.6604L53.1677 25.1393L51.4949 25.1359L50.2044 24.0703L48.6944 24.7921L47.0705 24.3907L46.0254 25.6978L44.3869 26.0411L44.0098 27.6714L42.6836 28.691L43.0541 30.3236L42.2996 31.8182L43.3398 33.1282L43.3112 34.8014L44.818 35.5309L45.5158 37.052L47.1886 37.0554L48.4791 38.121L49.9891 37.3993L51.613 37.8006ZM44.5242 30.5041C44.8503 27.8478 47.2769 25.9519 49.9333 26.2781C52.5897 26.6043 54.4853 29.0308 54.1595 31.6872C53.8331 34.3436 51.4066 36.2394 48.7502 35.9132C46.0939 35.5871 44.198 33.1606 44.5242 30.5041Z" fill="#FFDFDF"/>
<path d="M49.7961 27.3962C47.7557 27.1457 45.892 28.6017 45.6415 30.6421C45.391 32.6824 46.8471 34.5461 48.8874 34.7966C50.9277 35.0471 52.7914 33.591 53.0419 31.5507C53.2924 29.5104 51.8363 27.6467 49.7961 27.3962Z" fill="#FFDFDF"/>
<path d="M46.7834 38.1799L44.7935 38.1758L43.9639 36.3675L43.6264 36.2041L41.5243 40.7658L44.2776 40.9512L46.2074 42.9239L47.9497 39.143L46.7834 38.1799Z" fill="#FFDFDF"/>
<path d="M53.2851 37.5124L52.0426 39.0664L50.1109 38.5889L48.7462 39.2412L49.5221 43.3313L51.8718 41.8841L54.5882 42.3703L53.6522 37.4355L53.2851 37.5124Z" fill="#FFDFDF"/>
</svg>
