<svg xmlns="http://www.w3.org/2000/svg" width="64" height="64" viewBox="0 0 64 64" fill="none">
<path d="M58.332 43.0006C51.4142 56.4127 36.2575 62.3602 24.4786 56.2848C12.6997 50.2094 8.75898 34.4116 15.6768 20.9995C22.5946 7.58738 37.7513 1.63984 49.5302 7.71527C61.3091 13.7907 65.2498 29.5885 58.332 43.0006Z" fill="#FFF5F5"/>
<path d="M39.9091 19.5538C39.0841 18.9316 37.928 19.0477 37.2395 19.7905C37.14 19.898 37.2157 19.805 35.7444 21.7575L40.8126 25.5768L42.188 23.7752C42.8517 22.8945 42.6751 21.6382 41.7944 20.9745L39.9091 19.5538Z" fill="#FFDFDF"/>
<path d="M27.9176 32.2345L26.0909 38.2034C25.9679 38.6055 26.1095 39.0415 26.4452 39.2946C26.7811 39.5477 27.2394 39.5635 27.5919 39.3344L32.826 35.9332C33.033 35.7986 32.4504 36.5208 39.5925 27.1658L34.5342 23.354C27.4674 32.7321 27.9914 31.9937 27.9176 32.2345Z" fill="#FFDFDF"/>
<path d="M34.6689 36.916C34.46 37.1895 34.2078 37.4232 33.9193 37.6107L28.6852 41.0119C27.656 41.6808 26.2828 41.6742 25.2455 40.8923C24.2418 40.1361 23.8145 38.8205 24.1823 37.6186L26.0091 31.6497C26.1117 31.3145 26.2707 31.0025 26.4817 30.7225L33.7193 21.1179L32.54 12.7272C32.3098 11.0893 30.79 9.94393 29.152 10.1741L9.81018 12.8924C8.1722 13.1227 7.02688 14.6425 7.25709 16.2805L11.1722 44.138C11.4024 45.776 12.9223 46.9213 14.5603 46.6911L33.9021 43.9728C35.54 43.7426 36.6854 42.2227 36.4552 40.5847L35.742 35.5102L34.6689 36.916ZM13.0206 18.971L27.8075 16.8928C28.3544 16.816 28.86 17.197 28.9369 17.7439C29.0137 18.2907 28.6327 18.7964 28.0858 18.8732L13.2989 20.9514C12.7521 21.0282 12.2464 20.6472 12.1696 20.1003C12.0927 19.5535 12.4738 19.0478 13.0206 18.971ZM13.7628 24.252L25.3811 22.6192C25.928 22.5423 26.4336 22.9234 26.5105 23.4702C26.5873 24.0171 26.2063 24.5227 25.6594 24.5996L14.0411 26.2324C13.4943 26.3093 12.9886 25.9282 12.9118 25.3814C12.8349 24.8345 13.216 24.3289 13.7628 24.252ZM13.654 30.6624C13.5771 30.1156 13.9582 29.6099 14.505 29.5331L22.9547 28.3455C23.5015 28.2687 24.0072 28.6497 24.084 29.1966C24.1609 29.7434 23.7799 30.2491 23.233 30.3259L14.7833 31.5134C14.2365 31.5903 13.7308 31.2093 13.654 30.6624Z" fill="#FFDFDF"/>
<path d="M50.1578 39.9081C53.2878 40.182 56.0471 37.8666 56.3209 34.7367C56.5948 31.6067 54.2794 28.8474 51.1495 28.5736C48.0195 28.2997 45.2602 30.6151 44.9864 33.745C44.7125 36.875 47.0279 39.6343 50.1578 39.9081Z" fill="#FFDFDF"/>
<path d="M57.4063 46.831L57.41 46.7885C57.4167 46.7558 57.4196 46.7226 57.4187 46.6893C57.4589 45.4164 57.0096 44.1765 56.1634 43.2248C55.3172 42.2731 54.1384 41.6819 52.8695 41.5728L52.1611 41.5109C52.0221 41.4998 51.883 41.5298 51.7609 41.5972L49.9243 42.6001L48.2897 41.2935C48.1813 41.206 48.0494 41.1522 47.9106 41.139L47.2022 41.077C45.922 40.9639 44.6476 41.3504 43.6458 42.1555C42.644 42.9606 41.9925 44.122 41.8275 45.3966C41.8275 45.3966 41.8219 45.4604 41.8194 45.4887C41.8126 45.5261 41.8093 45.564 41.8095 45.6021C41.8033 45.6323 41.8006 45.6632 41.8015 45.6941L41.6856 47.0189C41.6363 47.5825 41.8129 48.1427 42.1766 48.5761C42.5402 49.0095 43.0612 49.2807 43.6249 49.33L54.9594 50.3217C55.5231 50.371 56.0832 50.1944 56.5167 49.8307C56.9501 49.467 57.2213 48.946 57.2706 48.3824L57.3865 47.0577C57.3927 47.0274 57.3954 46.9965 57.3945 46.9656C57.3945 46.9656 57.4057 46.8381 57.4063 46.831Z" fill="#FFDFDF"/>
</svg>
