<svg width="48" height="48" viewBox="0 0 48 48" fill="none" xmlns="http://www.w3.org/2000/svg">
<path d="M5.33325 4C5.33325 1.79086 7.12411 0 9.33325 0H29.3333L42.6666 13.3333V44C42.6666 46.2091 40.8757 48 38.6666 48H9.33325C7.12411 48 5.33325 46.2091 5.33325 44V4Z" fill="white"/>
<path d="M26.6665 25.3333V23.1111C26.6665 21.9323 26.2451 20.8019 25.4949 19.9684C24.7448 19.1349 23.7274 18.6666 22.6665 18.6666H14.6665C13.6056 18.6666 12.5882 19.1349 11.8381 19.9684C11.0879 20.8019 10.6665 21.9323 10.6665 23.1111V25.3333" fill="#A6A6A6"/>
<path d="M18.6665 17.3334C20.8756 17.3334 22.6665 15.5425 22.6665 13.3334C22.6665 11.1242 20.8756 9.33337 18.6665 9.33337C16.4574 9.33337 14.6665 11.1242 14.6665 13.3334C14.6665 15.5425 16.4574 17.3334 18.6665 17.3334Z" fill="#A6A6A6"/>
<path d="M11.9537 34.8133H25.9624C26.2685 34.8133 26.5622 34.6917 26.7787 34.4752C26.9952 34.2587 27.1168 33.9651 27.1168 33.6589C27.1168 33.3528 26.9952 33.0591 26.7787 32.8426C26.5622 32.6261 26.2685 32.5045 25.9624 32.5045H11.9537C11.6476 32.5045 11.3539 32.6261 11.1374 32.8426C10.9209 33.0591 10.7993 33.3528 10.7993 33.6589C10.7993 33.9651 10.9209 34.2587 11.1374 34.4752C11.3539 34.6917 11.6476 34.8133 11.9537 34.8133Z" fill="#A6A6A6"/>
<path d="M33.8873 38.5835H11.9537C11.6476 38.5835 11.3539 38.7051 11.1374 38.9216C10.9209 39.1381 10.7993 39.4317 10.7993 39.7379C10.7993 40.0441 10.9209 40.3377 11.1374 40.5542C11.3539 40.7707 11.6476 40.8923 11.9537 40.8923H33.8873C34.1935 40.8923 34.4871 40.7707 34.7036 40.5542C34.9201 40.3377 35.0417 40.0441 35.0417 39.7379C35.0417 39.4317 34.9201 39.1381 34.7036 38.9216C34.4871 38.7051 34.1935 38.5835 33.8873 38.5835Z" fill="#A6A6A6"/>
<path fill-rule="evenodd" clip-rule="evenodd" d="M29.3333 0V9.33334C29.3333 11.5425 31.1241 13.3333 33.3333 13.3333H42.6666L29.3333 0Z" fill="#DEDEDE"/>
</svg>
