<svg width="80" height="80" viewBox="0 0 80 80" fill="none" xmlns="http://www.w3.org/2000/svg">
<path d="M41.3895 2.21301L43.5015 6.45434L48.0228 7.23834C49.2735 7.45567 49.7708 9.05167 48.8815 9.99301L45.6655 13.397L46.3482 18.1223C46.5375 19.429 45.2348 20.4157 44.1002 19.825L40.0002 17.6877L35.9002 19.825C34.7655 20.4157 33.4642 19.4303 33.6522 18.1223L34.3348 13.397L31.1188 9.99301C30.2295 9.05167 30.7268 7.45567 31.9775 7.23834L36.4988 6.45434L38.6108 2.21301C39.1948 1.03967 40.8055 1.03967 41.3895 2.21301Z" fill="#FF9119"/>
<path d="M17.3895 12.88L19.5015 17.1213L24.0228 17.9053C25.2735 18.1227 25.7708 19.7187 24.8815 20.66L21.6655 24.064L22.3482 28.7893C22.5375 30.096 21.2348 31.0827 20.1002 30.492L16.0002 28.3547L11.9002 30.492C10.7655 31.0827 9.46418 30.0973 9.65218 28.7893L10.3348 24.064L7.11884 20.66C6.22951 19.7187 6.72684 18.1227 7.97751 17.9053L12.4988 17.1213L14.6108 12.88C15.1948 11.7067 16.8055 11.7067 17.3895 12.88Z" fill="#FF9119"/>
<path d="M65.3895 12.88L67.5015 17.1213L72.0228 17.9053C73.2735 18.1227 73.7708 19.7187 72.8815 20.66L69.6655 24.064L70.3482 28.7893C70.5375 30.096 69.2348 31.0827 68.1002 30.492L64.0002 28.3547L59.9002 30.492C58.7655 31.0827 57.4642 30.0973 57.6522 28.7893L58.3348 24.064L55.1188 20.66C54.2295 19.7187 54.7268 18.1227 55.9775 17.9053L60.4988 17.1213L62.6108 12.88C63.1948 11.7067 64.8055 11.7067 65.3895 12.88Z" fill="#FF9119"/>
<path d="M25.8668 57.867C22.2402 61.4937 20.0002 66.4803 20.0002 72.0003C20.0002 72.7337 19.4002 73.3337 18.6668 73.3337H2.66683C1.9335 73.3337 1.3335 72.7337 1.3335 72.0003C1.3335 61.3337 5.66683 51.6803 12.6668 44.667H14.0002L25.3335 56.0003L25.8668 57.867Z" fill="#C82222"/>
<path d="M39.9998 33.333L41.3332 34.6663V50.6663L39.9998 51.9997C34.4798 51.9997 29.4932 54.2397 25.8665 57.8663L12.6665 44.6663C19.6798 37.6663 29.3332 33.333 39.9998 33.333Z" fill="#ED1B2F"/>
<path d="M67.3333 44.6663L68 46.6663L56 58.6663L54.1333 57.8663C50.5067 54.2397 45.52 51.9997 40 51.9997V33.333C50.6667 33.333 60.32 37.6663 67.3333 44.6663Z" fill="#FC6170"/>
<path d="M78.6666 72.0003C78.6666 72.7337 78.0666 73.3337 77.3333 73.3337H61.3333C60.6 73.3337 60 72.7337 60 72.0003C60 66.4803 57.76 61.4937 54.1333 57.867L67.3333 44.667C74.3333 51.6803 78.6666 61.3337 78.6666 72.0003Z" fill="#FFB3B3"/>
<path d="M44.9602 75.2798C51.3602 71.8131 61.4269 65.8398 69.0269 61.2931C70.4135 60.4531 69.4402 58.3598 67.9202 58.8798C59.5335 61.7598 48.4935 65.6131 41.7202 68.2931L44.9602 75.2798Z" fill="#121212"/>
<path d="M39.9998 78.6667C42.9454 78.6667 45.3332 76.2789 45.3332 73.3333C45.3332 70.3878 42.9454 68 39.9998 68C37.0543 68 34.6665 70.3878 34.6665 73.3333C34.6665 76.2789 37.0543 78.6667 39.9998 78.6667Z" fill="#121212"/>
</svg>
