<svg width="64" height="64" viewBox="0 0 64 64" fill="none" xmlns="http://www.w3.org/2000/svg">
<path d="M58.3323 43.0007C51.4142 56.4128 36.2575 62.3602 24.4787 56.2849C12.6997 50.2095 8.75904 34.4117 15.6769 20.9996C22.5947 7.5875 37.7514 1.63996 49.5303 7.71539C61.3093 13.7908 65.2501 29.5886 58.3323 43.0007Z" fill="#FFF5F5"/>
<path d="M17.0529 31.2134C17.6501 31.1295 18.2043 31.5471 18.2882 32.1442C18.3721 32.7414 17.9545 33.2957 17.3573 33.3796C16.7602 33.4635 16.2059 33.0458 16.122 32.4487C16.0381 31.8515 16.4557 31.2973 17.0529 31.2134Z" fill="#FFDFDF"/>
<path d="M17.5431 26.8378L17.8585 29.082C17.5028 29.009 17.129 28.9945 16.7492 29.0479C14.9577 29.2996 13.7047 30.9624 13.9565 32.7539C14.2083 34.5453 15.8711 35.7983 17.6625 35.5466C18.0423 35.4932 18.3977 35.3762 18.7194 35.208L19.0348 37.4522C18.6904 37.5742 18.333 37.6613 17.9669 37.7127C14.9812 38.1324 12.2099 36.0441 11.7903 33.0583C11.3707 30.0725 13.4589 27.3013 16.4447 26.8817C16.8108 26.8302 17.1784 26.8154 17.5431 26.8378Z" fill="#FFDFDF"/>
<path d="M9.62337 33.3612C10.2109 37.542 14.0899 40.465 18.2707 39.8774C18.6353 39.8261 18.9936 39.75 19.3429 39.6479L20.2672 46.2238L17.0178 46.6805C16.4199 46.7645 15.8665 46.3475 15.7825 45.7496L15.5669 44.2159C14.6455 44.0884 13.7412 43.8518 12.8632 43.5091L11.9268 44.7525C11.5631 45.2351 10.8779 45.3315 10.3953 44.9678L6.90091 42.3346C6.41819 41.9708 6.32331 41.284 6.68571 40.8031L7.62278 39.5595C7.05073 38.8108 6.57467 38.0066 6.19819 37.1561L4.66449 37.3716C4.06661 37.4556 3.51319 37.0386 3.42916 36.4407L2.82027 32.1083C2.73625 31.5104 3.15329 30.957 3.75116 30.873L5.28484 30.6574C5.41233 29.736 5.64827 28.8317 5.99169 27.9537L4.74823 27.0173C4.26735 26.6549 4.16919 25.9685 4.53298 25.4858L7.16614 21.9914C7.52982 21.5088 8.21505 21.4125 8.69766 21.7762L9.94123 22.7133C10.69 22.1412 11.4941 21.6652 12.3447 21.2886L12.1292 19.755C12.0451 19.1571 12.4622 18.6037 13.0601 18.5196L16.3094 18.063L17.2336 24.6389C16.8696 24.637 16.5042 24.6626 16.1396 24.7139C11.9588 25.3014 9.03579 29.1804 9.62337 33.3612Z" fill="#FFDFDF"/>
<path d="M31.7058 16.5454L32.5301 22.41L38.3947 21.5858L31.7058 16.5454ZM22.6377 23.8003L27.1145 23.1711C27.7124 23.0871 28.2658 23.5041 28.3498 24.102C28.4339 24.6999 28.0169 25.2533 27.419 25.3374L22.9421 25.9665C22.3442 26.0505 21.7908 25.6335 21.7068 25.0357C21.6227 24.4377 22.0398 23.8844 22.6377 23.8003ZM35.7443 37.4213L24.7688 38.9638C24.1709 39.0479 23.6175 38.6309 23.5335 38.0329C23.4494 37.4351 23.8665 36.8816 24.4643 36.7976L35.4399 35.2551C36.0377 35.1711 36.5912 35.5881 36.6752 36.186C36.7592 36.7839 36.3422 37.3373 35.7443 37.4213ZM35.1354 33.0889L24.1599 34.6314C23.562 34.7154 23.0086 34.2984 22.9246 33.7005C22.8406 33.1026 23.2576 32.5492 23.8554 32.4652L34.831 30.9227C35.4288 30.8386 35.9823 31.2557 36.0663 31.8536C36.1503 32.4514 35.7333 33.0049 35.1354 33.0889ZM34.5265 28.7565L23.551 30.299C22.9531 30.383 22.3997 29.966 22.3156 29.3681C22.2316 28.7702 22.6487 28.2168 23.2466 28.1327L34.222 26.5902C34.82 26.5062 35.3734 26.9232 35.4574 27.5212C35.5414 28.119 35.1244 28.6725 34.5265 28.7565ZM31.7514 24.7285C31.1535 24.8125 30.6001 24.3954 30.5161 23.7976L29.4505 16.2158L18.475 17.7583L22.4328 45.9192L40.99 43.3111C41.5879 43.2271 42.005 42.6736 41.9209 42.0758L39.3332 23.6629L31.7514 24.7285Z" fill="#FFDFDF"/>
<path d="M58.4736 32.1625C58.6528 30.1139 57.4112 28.2071 55.4651 27.5429C55.2971 27.4867 55.1264 27.4401 54.9531 27.4033C53.1877 27.0308 51.3716 27.7597 50.3534 29.2496C49.3352 30.7394 49.3157 32.6962 50.3041 34.2059C50.8347 34.9855 51.0293 35.9457 50.8441 36.8704L50.737 37.3741L54.7616 38.2296L54.8694 37.7232C55.0646 36.819 55.6166 36.032 56.4006 35.5403C57.583 34.802 58.3504 33.5514 58.4731 32.1627L58.4736 32.1625Z" fill="#FFDFDF"/>
<path d="M52.0363 41.1547C52.4627 41.2448 52.8996 41.0569 53.1276 40.6855L51.2302 40.2822C51.2874 40.7142 51.6102 41.0636 52.0363 41.1547Z" fill="#FFDFDF"/>
<path d="M50.7163 39.1228C50.6772 39.3081 50.7954 39.4899 50.9804 39.5295L53.6635 40.0998C53.8486 40.1389 54.0304 40.0208 54.0704 39.8357L54.2843 38.8296L50.9302 38.1167L50.7163 39.1228Z" fill="#FFDFDF"/>
<path d="M55.3867 25.392C55.7568 25.4707 56.1211 25.2343 56.2 24.8638L56.5563 23.1869C56.6352 22.8165 56.3984 22.4523 56.0283 22.3735C55.6576 22.2948 55.2933 22.5313 55.2149 22.9017L54.8581 24.5786C54.7797 24.9491 55.016 25.3133 55.3867 25.392Z" fill="#FFDFDF"/>
<path d="M49.3732 25.8486C49.5848 26.1585 50.0026 26.2473 50.3219 26.0502C50.4745 25.9511 50.5814 25.7956 50.6192 25.6176C50.657 25.4397 50.6226 25.2541 50.5235 25.1015L49.5897 23.6638C49.4907 23.5113 49.3351 23.4043 49.1572 23.3666C48.9794 23.3287 48.7937 23.3631 48.6412 23.4622C48.4887 23.5612 48.3817 23.7168 48.3439 23.8947C48.3061 24.0726 48.3405 24.2582 48.4396 24.4108L49.3732 25.8486Z" fill="#FFDFDF"/>
<path d="M47.6603 30.4104C47.739 30.0399 47.5025 29.6758 47.1321 29.5971L45.4552 29.2406C45.0848 29.1622 44.7209 29.3986 44.6418 29.7688C44.5635 30.1392 44.7998 30.5031 45.17 30.5821L46.8469 30.9386C47.2174 31.0173 47.5816 30.7809 47.6603 30.4104Z" fill="#FFDFDF"/>
<path d="M62.8944 32.9478L61.2176 32.5913C60.8469 32.5126 60.4832 32.749 60.4042 33.1195C60.3253 33.49 60.5621 33.8541 60.9322 33.9329L62.6096 34.2893C62.9797 34.368 63.344 34.1316 63.4229 33.7611C63.5013 33.3907 63.265 33.0265 62.8944 32.9478Z" fill="#FFDFDF"/>
<path d="M60.6944 28.2556L62.1323 27.3218C62.3376 27.1884 62.4565 26.9555 62.4437 26.7109C62.4309 26.4662 62.2885 26.247 62.0699 26.1358C61.8517 26.0246 61.5909 26.0382 61.3856 26.1717L59.9477 27.1053C59.7952 27.2043 59.688 27.3599 59.6501 27.5378C59.6123 27.7157 59.6469 27.9014 59.7461 28.0539C59.9573 28.3639 60.3755 28.4527 60.6944 28.2556Z" fill="#FFDFDF"/>
</svg>
