<svg width="64" height="64" viewBox="0 0 64 64" fill="none" xmlns="http://www.w3.org/2000/svg">
<path d="M7.11084 4C7.11084 1.79086 8.9017 0 11.1108 0H39.1108L56.8886 17.7778V60C56.8886 62.2091 55.0978 64 52.8886 64H11.1108C8.9017 64 7.11084 62.2091 7.11084 60V4Z" fill="#FFDFDF"/>
<path d="M35.5555 33.7778V30.8148C35.5555 29.2432 34.9936 27.7359 33.9934 26.6246C32.9932 25.5133 31.6367 24.8889 30.2222 24.8889H19.5555C18.141 24.8889 16.7845 25.5133 15.7843 26.6246C14.7841 27.7359 14.2222 29.2432 14.2222 30.8148V33.7778" fill="#ED1B2F"/>
<path d="M24.8885 23.1111C27.834 23.1111 30.2218 20.7233 30.2218 17.7778C30.2218 14.8323 27.834 12.4445 24.8885 12.4445C21.943 12.4445 19.5552 14.8323 19.5552 17.7778C19.5552 20.7233 21.943 23.1111 24.8885 23.1111Z" fill="#ED1B2F"/>
<path d="M15.9381 46.4178H34.6163C35.0246 46.4178 35.4161 46.2556 35.7047 45.9669C35.9934 45.6783 36.1555 45.2868 36.1555 44.8786C36.1555 44.4703 35.9934 44.0788 35.7047 43.7902C35.4161 43.5015 35.0246 43.3394 34.6163 43.3394H15.9381C15.5299 43.3394 15.1384 43.5015 14.8497 43.7902C14.5611 44.0788 14.3989 44.4703 14.3989 44.8786C14.3989 45.2868 14.5611 45.6783 14.8497 45.9669C15.1384 46.2556 15.5299 46.4178 15.9381 46.4178Z" fill="#ED1B2F"/>
<path d="M45.183 51.4447H15.9381C15.5299 51.4447 15.1384 51.6069 14.8497 51.8955C14.5611 52.1842 14.3989 52.5757 14.3989 52.9839C14.3989 53.3921 14.5611 53.7836 14.8497 54.0723C15.1384 54.3609 15.5299 54.5231 15.9381 54.5231H45.183C45.5912 54.5231 45.9827 54.3609 46.2713 54.0723C46.56 53.7836 46.7222 53.3921 46.7222 52.9839C46.7222 52.5757 46.56 52.1842 46.2713 51.8955C45.9827 51.6069 45.5912 51.4447 45.183 51.4447Z" fill="#ED1B2F"/>
<path fill-rule="evenodd" clip-rule="evenodd" d="M39.1108 0V13.7778C39.1108 15.9869 40.9017 17.7778 43.1108 17.7778H56.8886L39.1108 0Z" fill="#FEEEED"/>
</svg>
