<svg width="160" height="160" viewBox="0 0 160 160" fill="none" xmlns="http://www.w3.org/2000/svg">
<g clip-path="url(#clip0_997_9783)">
<path d="M144.144 135.402C123.338 175.638 77.7537 193.481 42.3281 175.254C6.90256 157.028 -4.94924 109.635 15.8564 69.3982C36.6621 29.1619 82.2465 11.3193 117.672 29.5456C153.098 47.7719 164.949 95.1653 144.144 135.402Z" fill="#FAFAFA"/>
<line y1="160.3" x2="160" y2="160.3" stroke="#DEDEDE"/>
<g opacity="0.1" filter="url(#filter0_f_997_9783)">
<ellipse cx="78.3999" cy="162.4" rx="64" ry="12" fill="#3E3E3E"/>
</g>
<rect x="29.0273" y="78.4905" width="86.6667" height="49.3333" rx="4" transform="rotate(-11 29.0273 78.4905)" fill="white"/>
<path d="M97.0759 167.454L96.2091 162.995C95.9991 161.915 96.7017 160.873 97.7819 160.663L105.928 159.08C106.959 158.879 108.036 159.503 108.383 160.495L109.898 164.849C110.081 165.368 110.035 165.923 109.763 166.377C109.501 166.829 109.05 167.153 108.505 167.259L99.3978 169.029C98.3275 169.237 97.2859 168.534 97.0759 167.454ZM98.1074 162.338C97.9489 162.369 97.855 162.521 97.8839 162.669L98.7507 167.129C98.7796 167.277 98.9335 167.381 99.0821 167.352L108.189 165.582C108.219 165.576 108.269 165.567 108.291 165.521C108.315 165.486 108.295 165.438 108.289 165.408L106.773 161.044C106.704 160.852 106.45 160.706 106.252 160.744L98.1055 162.328L98.1074 162.338Z" fill="#3E3E3E"/>
<path d="M95.7756 160.765L94.7989 155.741C94.5909 154.67 95.2915 153.619 96.3717 153.409L103.556 152.012C104.597 151.81 105.667 152.445 106.004 153.439L107.658 158.352C107.83 158.864 107.773 159.42 107.511 159.872C107.25 160.324 106.788 160.65 106.263 160.752L98.1172 162.336C97.0271 162.548 95.9836 161.835 95.7756 160.765ZM96.6973 155.084C96.5387 155.114 96.4448 155.266 96.4737 155.415L97.4503 160.439C97.4792 160.588 97.6331 160.692 97.7818 160.663L105.928 159.08C105.967 159.072 106.017 159.062 106.039 159.017C106.063 158.981 106.053 158.932 106.046 158.892L104.391 153.979C104.325 153.796 104.08 153.649 103.882 153.687L96.6973 155.084Z" fill="#3E3E3E"/>
<path d="M79.6251 165.93L71.4791 167.514C70.9439 167.618 70.4061 167.496 69.9822 167.167C69.5701 166.846 69.3094 166.352 69.2767 165.813L68.9701 160.638C68.9104 159.59 69.6741 158.598 70.7047 158.398L77.8895 157.001C78.9697 156.791 80.0132 157.504 80.2213 158.574L81.1979 163.599C81.406 164.669 80.7053 165.72 79.6251 165.93ZM71.0402 160.071C70.8519 160.107 70.6686 160.328 70.6774 160.532L70.984 165.707C70.9917 165.747 70.9994 165.787 71.0269 165.822C71.0643 165.856 71.1139 165.847 71.1535 165.839L79.2996 164.255C79.4482 164.227 79.552 164.073 79.5231 163.924L78.5465 158.9C78.5176 158.751 78.3637 158.647 78.2151 158.676L71.0402 160.071Z" fill="#3E3E3E"/>
<path d="M80.6398 55.916C81.5235 55.806 82.2695 55.8872 82.2901 56.0992C82.3107 56.3112 81.6145 56.9093 80.7273 56.9481C79.8401 56.9868 79.1002 56.8838 79.0892 56.7214C79.0782 56.559 79.7562 56.0261 80.6398 55.916Z" fill="#3E3E3E"/>
<path d="M80.7371 57.3678C78.6992 57.4657 78.6704 56.9468 78.6616 56.7428C78.6349 56.1824 79.6554 55.6652 80.3788 55.5246C80.4482 55.5111 80.5076 55.4995 80.577 55.486C80.9178 55.4404 82.0489 55.3336 82.4846 55.6706C82.6069 55.7703 82.6834 55.8994 82.6905 56.042C82.7568 56.5947 81.9123 57.1703 81.1095 57.3263C80.9906 57.3494 80.8698 57.3626 80.7371 57.3678ZM80.6893 56.3281C80.4297 56.3683 80.1957 56.4343 79.9972 56.5243C80.1951 56.5373 80.4308 56.5326 80.6961 56.5222C81.0229 56.5101 81.3106 56.4028 81.5231 56.2792C81.3172 56.2781 81.0301 56.2824 80.6893 56.3281Z" fill="#3E3E3E"/>
<path d="M80.7467 57.4174C78.6573 57.515 78.6246 56.9763 78.61 56.7426C78.5776 56.1524 79.6239 55.6096 80.3672 55.4652C80.4366 55.4517 80.5059 55.4382 80.5772 55.4346C81.019 55.3796 82.0907 55.2844 82.5284 55.6313C82.6624 55.7389 82.7409 55.8779 82.7618 56.0384C82.8201 56.603 81.9397 57.2061 81.1271 57.3641C81.0002 57.399 80.8694 57.4141 80.7467 57.4174Z" fill="#3E3E3E"/>
<path d="M80.7682 57.8451C79.0353 57.9248 78.2412 57.5958 78.1942 56.7719C78.14 55.8054 79.583 55.1341 80.528 55.0224C81.6217 54.8818 82.3815 54.981 82.7955 55.3119C83.0143 55.4853 83.1555 55.7355 83.1778 56.0089C83.2644 56.8251 82.2208 57.5936 81.2001 57.792C81.0614 57.819 80.9207 57.836 80.7682 57.8451ZM79.028 56.723C79.0387 56.9369 79.7192 57.0514 80.7074 57.0033C81.5908 56.9447 82.3503 56.3549 82.3299 56.0914C82.3203 56.0419 82.3027 56.0041 82.2553 55.9722C82.0858 55.8406 81.514 55.7564 80.6186 55.8584C80.5591 55.87 80.4996 55.8815 80.4501 55.8912C79.6771 56.0414 79.0192 56.519 79.028 56.723Z" fill="#3E3E3E"/>
<path d="M54.8635 60.9263C55.7471 60.8162 56.4931 60.8975 56.5137 61.1095C56.5344 61.3214 55.8382 61.9196 54.9509 61.9583C54.0637 61.9971 53.3238 61.8941 53.3128 61.7317C53.2919 61.5712 53.9699 61.0383 54.8635 60.9263Z" fill="#3E3E3E"/>
<path d="M54.9607 62.3781C52.9229 62.476 52.8921 61.9472 52.8852 61.7531C52.8585 61.1926 53.879 60.6754 54.6024 60.5348C54.6718 60.5213 54.7313 60.5098 54.8006 60.4963C55.1414 60.4506 56.2825 60.342 56.7083 60.6808C56.8305 60.7805 56.907 60.9096 56.9142 61.0522C56.9805 61.605 56.1359 62.1805 55.3332 62.3365C55.2143 62.3597 55.0835 62.3748 54.9607 62.3781ZM54.9129 61.3384C54.6533 61.3785 54.4193 61.4446 54.2208 61.5346C54.4188 61.5475 54.6445 61.5448 54.9198 61.5324C55.2465 61.5203 55.5342 61.413 55.7467 61.2894C55.5309 61.2902 55.2537 61.2927 54.9129 61.3384Z" fill="#3E3E3E"/>
<path d="M54.9607 62.4296C52.8713 62.5272 52.8386 61.9885 52.8339 61.7529C52.8015 61.1627 53.8578 60.618 54.5911 60.4754C54.6605 60.4619 54.7298 60.4485 54.8011 60.4449C55.243 60.3899 56.3146 60.2947 56.7523 60.6415C56.8863 60.7492 56.9648 60.8882 56.9857 61.0487C57.044 61.6133 56.1736 62.2144 55.351 62.3743C55.2241 62.4093 55.0934 62.4244 54.9607 62.4296Z" fill="#3E3E3E"/>
<path d="M54.9821 62.8573C53.2492 62.937 52.455 62.608 52.408 61.7841C52.3539 60.8176 53.8167 60.1425 54.7419 60.0346C55.4948 59.9397 56.4968 59.9095 57.0093 60.3241C57.2301 60.5074 57.3694 60.7477 57.3917 61.0211C57.4783 61.8373 56.4347 62.6058 55.414 62.8042C55.2851 62.8292 55.1445 62.8463 54.9821 62.8573ZM53.2518 61.7332C53.2625 61.9471 53.9429 62.0617 54.9312 62.0136C55.8145 61.955 56.584 61.3632 56.5537 61.1017C56.5441 61.0521 56.5265 61.0144 56.4791 60.9825C56.3096 60.8509 55.7378 60.7666 54.8324 60.8706C54.773 60.8822 54.7234 60.8918 54.664 60.9034C53.9009 61.0517 53.243 61.5293 53.2518 61.7332Z" fill="#3E3E3E"/>
<path d="M80.7049 50.9051C80.8029 51.0917 80.238 51.5718 79.4361 51.9436C78.638 52.3353 77.9143 52.5274 77.834 52.3785C77.7536 52.2295 78.1536 51.4833 78.9222 51.0459C79.6889 50.5986 80.597 50.7204 80.7049 50.9051Z" fill="#3E3E3E"/>
<path d="M77.4624 52.5843C77.1919 52.0919 77.9217 51.1375 78.7082 50.6864C78.9664 50.5334 79.2441 50.428 79.5514 50.3682C79.9676 50.2873 80.835 50.2524 81.078 50.7091C81.1446 50.8402 81.1636 50.9907 81.1113 51.1449C80.9362 51.6726 79.9256 52.1878 79.6239 52.3287C79.1157 52.5715 78.6277 52.7589 78.2709 52.8283C78.1123 52.8591 77.6565 52.9477 77.4624 52.5843ZM79.1279 51.4173C78.8975 51.5546 78.7106 51.7041 78.5771 51.8637C78.7893 51.7916 79.0175 51.6959 79.2518 51.5783C79.5535 51.4374 79.7839 51.3001 79.9648 51.1723C79.6994 51.1828 79.3861 51.2642 79.1279 51.4173Z" fill="#3E3E3E"/>
<path d="M77.4049 52.6062C77.0991 52.0382 77.9479 51.0608 78.6768 50.6311C78.937 50.488 79.2227 50.3708 79.5398 50.3091C79.9759 50.2244 80.865 50.1955 81.1237 50.68C81.2022 50.819 81.2151 50.9914 81.1628 51.1455C80.9877 51.6732 80.0465 52.175 79.6416 52.3668C79.1334 52.6096 78.6335 52.789 78.2767 52.8584C77.8445 52.9629 77.55 52.8762 77.4049 52.6062Z" fill="#3E3E3E"/>
<path d="M77.0435 52.8101C76.5926 51.9721 77.5771 50.7935 78.4728 50.2697C78.7867 50.0852 79.114 49.9702 79.4608 49.9028C79.6194 49.872 81.0324 49.6282 81.4989 50.4939C81.6283 50.7362 81.6525 51.0194 81.5619 51.2942C81.4008 51.7883 80.8081 52.284 79.8215 52.7637C79.2856 53.0222 78.7479 53.2193 78.3515 53.2963C77.5172 53.4482 77.1747 53.0623 77.0435 52.8101ZM78.8926 51.0005C78.1735 51.4283 77.6645 52.1957 77.7782 52.4102C77.8272 52.5035 78.0312 52.4947 78.1897 52.4639C78.5068 52.4022 78.9869 52.2266 79.4475 52.0034C80.2554 51.6098 80.6852 51.228 80.7496 51.0304C80.7697 50.9751 80.77 50.9236 80.7424 50.8878C80.6464 50.7111 80.1063 50.6309 79.6108 50.7272C79.363 50.7754 79.1249 50.8731 78.8926 51.0005Z" fill="#3E3E3E"/>
<path d="M70.3159 46.9288C70.1438 46.8903 70.1497 46.1795 70.3264 45.343C70.5032 44.5064 70.8275 43.8469 71.0411 43.8876C71.2567 43.9383 71.6186 44.7421 71.3785 45.5704C71.1384 46.3987 70.486 46.9575 70.3159 46.9288Z" fill="#3E3E3E"/>
<path d="M70.2423 47.3442L70.011 47.2657L69.9108 47.1206C69.6477 46.7193 69.8256 45.6768 69.9189 45.2576C70.047 44.6465 70.3556 43.5889 70.9205 43.4791L71.0513 43.4639L71.1363 43.4783C71.3183 43.5149 71.4779 43.6484 71.6133 43.8689C71.8567 44.2741 72.0072 44.9956 71.7935 45.6954C71.5356 46.5374 70.8743 47.2625 70.4482 47.3453C70.367 47.3508 70.3056 47.3524 70.2423 47.3442ZM70.7437 45.4264C70.6847 45.7052 70.6478 45.9386 70.633 46.1267C70.7626 45.9472 70.8926 45.7162 70.9831 45.4415C71.0759 45.1252 71.0578 44.8202 71.0016 44.5843C70.9094 44.7976 70.8188 45.0724 70.7437 45.4264Z" fill="#3E3E3E"/>
<path d="M70.2298 47.3878L69.9768 47.3033L69.8728 47.1384C69.6097 46.737 69.7614 45.7716 69.8732 45.2357C70.0073 44.6028 70.3159 43.5452 70.9204 43.4277L71.1462 43.425C71.338 43.4597 71.5194 43.5993 71.6568 43.8297C71.9119 44.2429 72.0663 44.9842 71.8466 45.7057C71.5765 46.5912 70.9015 47.2984 70.4555 47.3851C70.3763 47.4005 70.305 47.404 70.2298 47.3878Z" fill="#3E3E3E"/>
<path d="M70.0932 47.7948L69.7078 47.664L69.5174 47.3719C69.2542 46.9706 69.2325 46.224 69.4561 45.1521C69.7304 43.8647 70.1876 43.1484 70.9012 43.0097L70.9111 43.0078L71.1368 43.0051L71.2298 43.0076C71.4435 43.0483 71.7694 43.1907 72.0165 43.6157C72.2912 44.0765 72.5183 44.9271 72.252 45.8325C71.9558 46.7951 71.1907 47.674 70.5367 47.8012C70.3979 47.8281 70.2752 47.8314 70.0932 47.7948ZM70.9917 43.8458C70.7935 43.8843 70.4761 44.3677 70.2728 45.3328C70.0655 46.3295 70.1362 46.7991 70.2108 46.9183L70.2956 46.9841C70.5191 47.023 71.1677 46.4444 71.4237 45.5924C71.6052 44.9915 71.4759 44.379 71.2796 44.0572C71.2168 43.946 71.142 43.8783 71.0748 43.8502L70.9917 43.8458Z" fill="#3E3E3E"/>
<path d="M65.6156 46.9272C65.4491 46.9698 65.1477 46.3188 64.9542 45.4822C64.7627 44.6555 64.7765 43.9329 65.0044 43.8886C65.2225 43.8463 65.9023 44.434 66.0264 45.2841C66.1387 46.1261 65.7822 46.8845 65.6156 46.9272Z" fill="#3E3E3E"/>
<path d="M64.5418 45.5829C64.4703 45.2677 64.2542 44.2093 64.5538 43.7397C64.6397 43.5996 64.7668 43.5131 64.9235 43.4724C65.1019 43.4377 65.3094 43.5002 65.5126 43.6459C65.8696 43.8953 66.3298 44.464 66.4366 45.2249C66.5607 46.0749 66.2495 47.2256 65.7064 47.3414L65.6965 47.3434C65.5181 47.378 64.981 47.4721 64.5418 45.5829ZM65.3586 45.3933C65.4243 45.6788 65.5022 45.9207 65.5686 46.1032C65.6093 45.8896 65.6385 45.6166 65.5964 45.3471C65.5507 45.0063 65.3839 44.7302 65.2364 44.5531C65.2433 44.7472 65.2793 45.0385 65.3586 45.3933Z" fill="#3E3E3E"/>
<path d="M64.4921 45.5926C64.3933 45.1902 64.2087 44.1873 64.5063 43.7078C64.6021 43.5658 64.7353 43.4576 64.9038 43.4249C65.102 43.3863 65.3096 43.4488 65.5364 43.6104C65.9052 43.8678 66.3674 44.4465 66.4761 45.2173C66.6059 46.0971 66.2887 47.2694 65.706 47.393L65.6961 47.3949C65.5078 47.4315 64.941 47.5314 64.4921 45.5926Z" fill="#3E3E3E"/>
<path d="M64.0778 45.6834C63.9463 45.1124 63.7737 44.0661 64.1512 43.4682C64.3109 43.2315 64.5454 43.0625 64.8229 43.0086C65.1301 42.9488 65.4544 43.0298 65.7877 43.2632C66.2413 43.5864 66.7723 44.2546 66.906 45.1542C67.0414 46.1152 66.7344 47.6044 65.7968 47.8072L65.7869 47.8091C64.7463 48.0114 64.314 46.6865 64.0778 45.6834ZM64.8674 43.9255C64.7256 44.1485 64.7361 44.7841 64.9045 45.4918C65.1541 46.5643 65.4566 47.0094 65.6251 46.9767L65.706 47.3929L65.6251 46.9767C65.8431 46.9343 66.1861 46.1066 66.0659 45.2764C65.9723 44.6363 65.5928 44.165 65.2949 43.9555C65.1647 43.8677 65.0541 43.8275 64.9847 43.841C64.9451 43.8487 64.8994 43.8782 64.8674 43.9255Z" fill="#3E3E3E"/>
<path d="M60.0595 47.7087C59.5266 47.0307 59.245 46.3758 59.4259 46.2481C59.6067 46.1203 60.4824 46.3924 60.9517 47.1136C61.421 47.8349 61.6827 48.4936 61.5376 48.5938C61.3887 48.6742 60.5924 48.3867 60.0595 47.7087Z" fill="#3E3E3E"/>
<path d="M59.7292 47.9683C59.5247 47.7098 58.88 46.8272 58.9582 46.2772C58.9789 46.1189 59.0648 45.9788 59.184 45.9042L59.3131 45.8277L59.4023 45.8104C59.8482 45.7237 60.7828 46.0871 61.3071 46.8799C61.5427 47.2455 62.0883 48.1473 61.9828 48.6101L61.9143 48.8394L61.7673 48.9297L61.5867 49.0059C61.1605 49.0887 60.2758 48.6642 59.7292 47.9683ZM60.3893 47.4491C60.5663 47.6718 60.7733 47.8373 60.9608 47.9551C60.8765 47.7864 60.7529 47.5739 60.6057 47.3454C60.4171 47.0632 60.1529 46.8677 59.9357 46.7557C60.0318 46.9324 60.171 47.1727 60.3893 47.4491Z" fill="#3E3E3E"/>
<path d="M59.6834 47.9978C59.4238 47.6677 58.8186 46.8289 58.9048 46.2671C58.9315 46.087 59.0174 45.9469 59.1525 45.8487L59.3015 45.7683L59.4006 45.749C59.9159 45.6488 60.8521 46.0737 61.3508 46.8406C61.6552 47.2957 62.1397 48.1477 62.046 48.6184L61.9615 48.8713L61.7966 48.9754L61.5962 49.0555C61.1522 49.1521 60.2595 48.7394 59.6834 47.9978Z" fill="#3E3E3E"/>
<path d="M59.3533 48.2574C58.903 47.6867 58.3927 46.8603 58.4913 46.2035C58.5285 45.9186 58.6843 45.6621 58.9566 45.4754L59.1055 45.3951L59.3296 45.3309C60.0927 45.1826 61.1607 45.7566 61.7164 46.6051C62.3154 47.5171 62.5669 48.2292 62.4592 48.7335L62.3323 49.1387L61.9629 49.3545L61.6791 49.4817C61.025 49.6088 59.9826 49.0607 59.3533 48.2574ZM61.6307 48.5449C61.6673 48.363 61.492 47.8314 60.9971 47.0843C60.5729 46.4365 59.8104 46.1117 59.4834 46.1752L59.3961 46.2025C59.3504 46.2319 59.3284 46.2773 59.3202 46.3407C59.2791 46.6057 59.5632 47.1676 60.0154 47.7482C60.507 48.3725 61.2359 48.6834 61.4875 48.655L61.6026 48.6121L61.6307 48.5449Z" fill="#3E3E3E"/>
<path d="M53.3736 55.6933C53.4045 55.4816 54.1532 55.4183 55.0335 55.5558C55.9039 55.6951 56.5996 55.9404 56.5808 56.1086C56.5522 56.2787 55.772 56.6566 54.8953 56.5905C53.9968 56.5183 53.3428 55.905 53.3736 55.6933Z" fill="#3E3E3E"/>
<path d="M54.8534 57.01C54.0815 56.9544 53.4245 56.537 53.1374 56.1712C52.9879 55.9843 52.9315 55.7998 52.9601 55.6297C52.9869 55.4497 53.1248 55.2069 53.6005 55.1144C53.9671 55.0431 54.5136 55.0501 55.0971 55.1423C55.659 55.2285 56.6359 55.4397 56.8913 55.8014L57.013 56.004L56.9844 56.1742C56.9023 56.7043 55.9251 56.9149 55.7269 56.9534C55.4395 57.0093 55.1463 57.0354 54.8534 57.01ZM54.9699 55.9692C54.6297 55.912 54.3387 55.8965 54.113 55.8993C54.3123 56.0251 54.5908 56.1355 54.9154 56.165C55.1549 56.1801 55.4084 56.1617 55.6542 56.1036C55.4723 56.067 55.235 56.0103 54.9699 55.9692Z" fill="#3E3E3E"/>
<path d="M54.853 57.0614C54.0594 56.9997 53.4043 56.5922 53.1015 56.1986C52.9501 56.0017 52.8799 55.7994 52.9146 55.6076C52.9474 55.4058 53.0933 55.1512 53.5987 55.0529C53.9753 54.9797 54.5237 54.9965 55.1171 55.0869C55.679 55.1731 56.6757 55.3804 56.9469 55.7699L57.0823 55.9904L57.0476 56.1823C56.9595 56.7342 56.0356 56.9549 55.7482 57.0108C55.4509 57.0686 55.1459 57.0867 54.853 57.0614Z" fill="#3E3E3E"/>
<path d="M54.8212 57.4791C53.8396 57.4025 53.1018 56.8877 52.7616 56.4602C52.4726 56.0844 52.4506 55.7596 52.4914 55.546C52.5302 55.3224 52.7072 54.8047 53.5099 54.6486C53.9361 54.5658 54.5241 54.5749 55.171 54.6754C56.2946 54.8478 56.9979 55.1328 57.3065 55.5562L57.5203 55.9157L57.4631 56.2559C57.3342 57.0215 56.3842 57.3193 55.8292 57.4271C55.4805 57.4846 55.1358 57.5105 54.8212 57.4791ZM56.6031 56.0117C56.5305 55.9024 56.1041 55.6665 55.0437 55.5024C54.1516 55.357 53.3632 55.4279 53.3301 55.6812C53.3158 55.7662 53.3766 55.8675 53.4317 55.9391C53.6657 56.2433 54.2261 56.5869 54.8851 56.6439C55.1364 56.667 55.3999 56.6467 55.6674 56.5947C56.2422 56.483 56.6017 56.2691 56.6323 56.1089L56.6364 56.0772L56.6031 56.0117Z" fill="#3E3E3E"/>
<path d="M76.8537 46.4908C77.0332 46.6205 76.7069 47.2701 76.1252 47.9283C75.5554 48.5944 74.9748 49.0466 74.8328 48.9508C74.6987 48.8432 74.7527 48.0099 75.2653 47.3138C75.7859 46.6058 76.6822 46.3493 76.8537 46.4908Z" fill="#3E3E3E"/>
<path d="M74.7351 49.4018L74.5893 49.2861C74.1298 48.9332 74.4093 47.7784 74.9379 47.0586C75.3847 46.4473 76.0437 46.134 76.4699 46.0512C76.7473 45.9973 76.9689 46.0262 77.1148 46.1418C77.2351 46.2316 77.3136 46.3706 77.3246 46.533C77.381 47.0877 76.6754 47.955 76.4562 48.2033C76.2371 48.4516 75.5021 49.2733 75.0066 49.3696L74.7351 49.4018ZM75.6123 47.5652C75.4488 47.7821 75.3485 48.0073 75.2841 48.2049C75.4314 48.0631 75.6125 47.8839 75.8058 47.6613C76.0249 47.413 76.1865 47.1862 76.2964 47.0105C76.0583 47.1082 75.7978 47.3029 75.6123 47.5652Z" fill="#3E3E3E"/>
<path d="M74.7247 49.4552L74.5571 49.3335C74.074 48.9646 74.3477 47.7801 74.8922 47.0366C75.347 46.4134 76.016 46.0983 76.4619 46.0116C76.7493 45.9557 76.9828 45.9926 77.1504 46.1143C77.2825 46.212 77.3629 46.361 77.3758 46.5333C77.4322 47.088 76.7803 47.914 76.4954 48.2471C76.2085 48.5703 75.5134 49.3327 75.0179 49.429L74.7247 49.4552Z" fill="#3E3E3E"/>
<path d="M74.6037 49.89L74.2921 49.6626C73.5211 49.0823 73.9509 47.5897 74.5434 46.7752C75.062 46.0573 75.8243 45.6932 76.3693 45.5873C76.8847 45.4871 77.2106 45.6294 77.392 45.769C77.6188 45.9306 77.7638 46.2007 77.7881 46.4839C77.8538 47.1396 77.2911 47.9484 76.8049 48.5159C76.1156 49.3081 75.5449 49.7585 75.089 49.8471L75.0692 49.8509L74.6037 49.89ZM75.2277 47.2799C74.7151 47.976 74.6291 48.8566 74.8086 48.9863L74.9471 49.0108C75.1334 48.9643 75.5587 48.6656 76.1644 47.972C76.6506 47.4044 76.9724 46.8379 76.9421 46.5764C76.9424 46.5249 76.9129 46.4792 76.8755 46.4453C76.8144 46.3955 76.6897 46.3889 76.5212 46.4216C76.1347 46.4968 75.5847 46.7888 75.2277 47.2799Z" fill="#3E3E3E"/>
<path d="M55.5101 50.2284C55.628 50.0409 56.3315 50.2744 57.0714 50.7476C57.8094 51.211 58.3294 51.7167 58.2317 51.8488C58.1378 52.0007 57.2723 52.0456 56.4944 51.6414C55.7264 51.2353 55.3904 50.4059 55.5101 50.2284Z" fill="#3E3E3E"/>
<path d="M56.2985 52.0086C55.6233 51.6565 55.2029 51.0286 55.0945 50.5766C55.0384 50.3407 55.0513 50.1427 55.1551 49.9889C55.211 49.906 55.3225 49.7918 55.5207 49.7532C56.0657 49.6473 57.0091 50.2147 57.2893 50.3865C57.7589 50.686 58.5577 51.2507 58.6463 51.7065L58.6708 51.9383L58.575 52.0803C58.4891 52.2204 58.3402 52.3008 58.1122 52.3451C57.7178 52.4321 56.9638 52.3627 56.2985 52.0086ZM56.6985 51.2624C56.9394 51.3904 57.2003 51.4631 57.4139 51.5038C57.268 51.3882 57.0767 51.2506 56.8419 51.1008C56.5361 50.9031 56.2754 50.779 56.0739 50.6947C56.2036 50.8855 56.4023 51.1143 56.6985 51.2624Z" fill="#3E3E3E"/>
<path d="M56.2762 52.0541C55.5891 51.694 55.157 51.0581 55.0447 50.5863C54.9748 50.3325 55.0056 50.1208 55.1174 49.9551C55.2052 49.8249 55.3503 49.7247 55.5188 49.692C56.0836 49.5822 57.0487 50.1556 57.3289 50.3274C57.8005 50.6368 58.6092 51.1996 58.7116 51.6733L58.7418 51.9348L58.6301 52.1005C58.5362 52.2525 58.3773 52.3348 58.1395 52.381C57.7073 52.4856 56.9533 52.4162 56.2762 52.0541Z" fill="#3E3E3E"/>
<path d="M56.0821 52.4312C55.2233 51.9811 54.7642 51.2065 54.6324 50.687C54.5121 50.227 54.6346 49.9049 54.7623 49.7156C54.914 49.4907 55.1524 49.3415 55.4299 49.2876C56.0642 49.1643 56.931 49.6026 57.5506 49.9861C58.9712 50.8926 59.0852 51.4258 59.1256 51.634L59.1768 52.056L58.9852 52.34C58.8274 52.5867 58.5692 52.7397 58.2224 52.8071C57.7486 52.9095 56.9074 52.8673 56.0821 52.4312ZM58.2992 51.774C58.2723 51.6353 57.9832 51.2595 57.1032 50.7004C56.3297 50.2131 55.6182 49.9914 55.4725 50.1946C55.4147 50.2675 55.4398 50.3964 55.4571 50.4856C55.5501 50.8583 55.9096 51.3849 56.4821 51.685C57.2501 52.0911 58.1451 52.0919 58.2888 51.8789L58.3127 51.8434L58.2992 51.774Z" fill="#3E3E3E"/>
<path d="M70.7438 72.0938C71.6555 71.9166 71.9372 71.0905 71.7599 70.1788L70.0898 61.5868C69.9126 60.6751 69.342 60.0147 68.4303 60.1919C67.5186 60.3691 67.227 61.1971 67.4042 62.1088L69.0743 70.7008C69.2535 71.6225 69.8222 72.273 70.7438 72.0938Z" fill="#3E3E3E"/>
<path d="M123.056 104.873C123.811 108.758 121.272 112.522 117.388 113.277L45.5994 127.231C41.7146 127.986 37.9507 125.448 37.1956 121.563L30.022 84.6579C29.2669 80.7732 31.8057 77.0093 35.6904 76.2541L107.469 62.3019C111.353 61.5467 115.117 64.0856 115.873 67.9703L123.046 104.875L123.056 104.873ZM113.237 68.6985C112.748 66.1814 110.31 64.5367 107.793 65.026L36.4206 78.8993C33.9034 79.3886 32.2588 81.8269 32.748 84.344L39.8427 120.843C40.3319 123.36 42.7683 124.995 45.2855 124.505L116.667 110.63C119.185 110.141 120.829 107.702 120.342 105.195L113.247 68.6966L113.237 68.6985Z" fill="#3E3E3E"/>
<path fill-rule="evenodd" clip-rule="evenodd" d="M29.0954 94.1765C22.3863 95.4806 20.5357 99.769 21.443 104.437C22.3502 109.104 25.6726 112.387 32.3817 111.083L29.0954 94.1765Z" fill="#3E3E3E"/>
<path fill-rule="evenodd" clip-rule="evenodd" d="M123.593 93.3533C130.303 92.0492 132.153 87.7608 131.246 83.0931C130.339 78.4255 127.016 75.1427 120.307 76.4468L123.593 93.3533Z" fill="#3E3E3E"/>
<path fill-rule="evenodd" clip-rule="evenodd" d="M120.224 154.799C120.625 156.861 119.283 158.849 117.222 159.25L62.9747 169.794C60.9233 170.193 58.9249 168.854 58.5242 166.793L52.1501 134C51.7494 131.939 53.0907 129.951 55.1519 129.55L109.409 119.003C111.471 118.603 113.459 119.944 113.86 122.005L120.234 154.797L120.224 154.799Z" fill="#3E3E3E"/>
<path d="M18.0905 122.746C16.4363 124.024 15.3426 124.905 14.2569 125.775C13.1692 126.634 12.0934 127.501 10.4491 128.777L11.7409 130.45C13.403 129.16 14.4888 128.29 15.5745 127.421C16.6523 126.564 17.738 125.695 19.3823 124.418L18.0905 122.746Z" fill="#3E3E3E"/>
<path d="M25.2843 130.305L18.7559 138.681L20.4199 139.978L26.9484 131.602L25.2843 130.305Z" fill="#3E3E3E"/>
<path d="M32.8319 135.41L29.5336 144.526L31.5538 145.131L34.8521 136.015L32.8319 135.41Z" fill="#3E3E3E"/>
<path d="M8.36123 122.108C9.34154 121.331 9.80541 120.86 10.6756 120.311C9.59481 120.994 7.35937 119.916 5.95512 121.105L5.67624 121.416L6.08276 122.396C17.168 141.489 29.1131 148.763 51.1197 148.434L50.8441 146.328C30.2199 146.573 18.9659 139.998 8.36123 122.108Z" fill="#3E3E3E"/>
<path d="M14.8233 116.306L13.8049 115.352L12.8959 116.125C11.607 117.219 11.9168 119.607 10.8539 120.276C11.6784 119.756 12.711 119.195 13.7031 118.426C27.5107 138.985 40.3696 139.849 49.7781 138.04L49.5043 135.944C32.0371 139.309 21.9671 127.238 14.8233 116.306Z" fill="#3E3E3E"/>
<path d="M15.493 117.317L6.64393 123.326L5.26934 121.228L14.0813 115.134L15.493 117.317Z" fill="#3E3E3E"/>
<path d="M12.8513 111.506C14.7932 114.512 13.9261 118.516 10.92 120.458C7.91388 122.4 3.89932 121.535 1.96735 118.527C0.467241 116.206 0.649379 113.281 2.19518 111.181L3.87394 113.415C3.34892 114.577 3.40472 115.975 4.14293 117.127C5.30531 118.927 7.71201 119.457 9.52201 118.293C11.3221 117.13 11.8401 114.716 10.6777 112.916C9.83542 111.598 8.32612 110.976 6.87376 111.176L5.19499 108.942C7.97836 107.917 11.1844 108.909 12.8513 111.506Z" fill="#3E3E3E"/>
<path d="M41.0465 135.871C41.0107 135.158 41.925 134.517 42.6418 134.501L49.6148 134.555L52.5216 149.509L43.3973 149.658C42.6786 149.664 41.8817 149.109 41.8459 148.396L41.0465 135.871Z" fill="#3E3E3E"/>
<path d="M140.946 98.8658C142.958 99.4311 144.302 99.8383 145.635 100.238C146.965 100.627 148.287 101.028 150.29 101.595L149.719 103.629C147.704 103.054 146.362 102.657 145.03 102.258C143.709 101.866 142.377 101.467 140.374 100.9L140.946 98.8658Z" fill="#3E3E3E"/>
<path d="M137.095 108.569L136.038 110.395L145.229 115.715L146.286 113.889L137.095 108.569Z" fill="#3E3E3E"/>
<path d="M132.022 116.13L138.495 123.346L136.848 124.664L130.375 117.448L132.022 116.13Z" fill="#3E3E3E"/>
<path d="M149.728 94.6288C148.538 94.2739 147.922 94.0132 146.909 93.8295C148.167 94.058 149.836 92.2218 151.583 92.7975L151.958 92.9817L151.949 94.0428C148.823 115.898 140.472 127.117 119.945 135.056L119.412 133C138.626 125.501 146.597 115.189 149.728 94.6288Z" fill="#3E3E3E"/>
<path d="M141.563 91.6701L142.15 90.4042L143.282 90.7805C144.887 91.3119 145.494 93.6416 146.73 93.8641C145.771 93.6906 144.604 93.5576 143.396 93.2165C138.295 117.451 126.696 123.068 117.295 124.916L116.764 122.87C134.219 119.446 139.034 104.482 141.563 91.6701Z" fill="#3E3E3E"/>
<path d="M141.321 92.859L151.776 95.1152L152.265 92.6548L141.812 90.3056L141.321 92.859Z" fill="#3E3E3E"/>
<path d="M141.593 86.4811C140.919 89.9957 143.223 93.384 146.737 94.0583C150.252 94.7327 153.65 92.4266 154.315 88.9139C154.836 86.2003 153.571 83.5562 151.351 82.1879L150.632 84.8886C151.554 85.7687 152.026 87.0859 151.773 88.4309C151.37 90.5354 149.337 91.9281 147.222 91.5267C145.118 91.1232 143.733 89.0784 144.136 86.974C144.424 85.4371 145.59 84.2951 147.012 83.9365L147.731 81.2358C144.767 81.3287 142.166 83.4489 141.593 86.4811Z" fill="#3E3E3E"/>
<path d="M124.578 119.634C124.345 118.96 123.257 118.708 122.586 118.962L116.141 121.624L119.048 136.578L127.564 133.298C128.232 133.034 128.763 132.221 128.529 131.547L124.578 119.634Z" fill="#3E3E3E"/>
<path d="M68.0402 61.9953C70.6614 61.6709 72.5315 59.2814 72.2071 56.6602C71.8808 54.0291 69.4932 52.1689 66.87 52.4834C64.2389 52.8097 62.3788 55.1973 62.7031 57.8185C63.0196 60.4515 65.4072 62.3117 68.0402 61.9953ZM65.3659 57.4963C65.2237 56.3413 66.0471 55.2865 67.2021 55.1442C68.3572 55.002 69.412 55.8254 69.5542 56.9804C69.6965 58.1355 68.8731 59.1903 67.718 59.3326C66.561 59.4649 65.5062 58.6415 65.3659 57.4963Z" fill="#3E3E3E"/>
<path fill-rule="evenodd" clip-rule="evenodd" d="M86.379 131.42C92.7257 131.214 97.4932 136.746 97.0234 143.8C96.5597 150.832 91.0376 156.709 84.6927 156.924C78.3479 157.139 73.5785 151.597 74.0503 144.553C74.5121 137.511 80.0322 131.625 86.379 131.42Z" fill="#ED1B2F"/>
<path fill-rule="evenodd" clip-rule="evenodd" d="M84.6968 140.859L83.2103 141.148L82.7153 138.601L84.2117 138.31L83.4989 134.643L86.4521 134.069L87.1649 137.736L91.7334 136.848L92.2284 139.395L87.6599 140.283L88.7213 145.743C88.835 146.328 89.0912 147.646 89.4273 148.105C89.6219 148.365 89.8723 148.543 90.1886 148.636C90.5999 148.741 91.0852 148.698 91.5014 148.617C92.4032 148.442 93.081 147.96 93.7808 147.434L93.8405 147.741L94.351 150.367L94.0115 150.525C93.1799 150.903 92.313 151.205 91.4112 151.381C88.2598 151.993 86.5499 150.392 85.9759 147.439L84.6968 140.859ZM84.5133 152.454L81.5502 153.03L78.89 139.344L81.8531 138.768L84.5133 152.454Z" fill="white"/>
<path fill-rule="evenodd" clip-rule="evenodd" d="M79.5015 134.608C80.5024 134.413 81.4791 135.046 81.6679 136.017C81.8547 136.979 81.1962 137.929 80.1854 138.126C79.1844 138.32 78.2197 137.695 78.0309 136.724C77.8402 135.743 78.5006 134.802 79.5015 134.608Z" fill="white"/>
<path d="M58.6608 81.148C54.0626 82.0418 51.0607 86.4923 51.9526 91.0806C52.8464 95.6789 57.2969 98.6808 61.8951 97.7869C66.4835 96.8951 69.4873 92.4545 68.5915 87.8463C67.7076 83.2462 63.2591 80.2542 58.6608 81.148ZM61.61 96.3203C57.8244 97.0561 54.1551 94.5812 53.4193 90.7955C52.6834 87.0099 55.1603 83.3505 58.9459 82.6147C62.7217 81.8808 66.389 84.3458 67.1248 88.1314C67.8706 91.9151 65.3957 95.5844 61.61 96.3203Z" fill="#3E3E3E"/>
<path d="M64.0231 86.5502C64.4238 88.6115 63.0745 90.6119 61.0132 91.0125C58.9519 91.4132 56.9516 90.064 56.5509 88.0027C56.1503 85.9414 57.4995 83.9411 59.5608 83.5404C61.6221 83.1397 63.6224 84.489 64.0231 86.5502Z" fill="#3E3E3E"/>
<path d="M86.7359 75.6907C82.1377 76.5845 79.1457 81.0331 80.0376 85.6214C80.9314 90.2197 85.3818 93.2215 89.9702 92.3296C94.5585 91.4378 97.5623 86.9972 96.6666 82.389C95.7827 77.7889 91.3342 74.7969 86.7359 75.6907ZM89.6851 90.863C85.8995 91.5988 82.2302 89.1239 81.4943 85.3382C80.7585 81.5526 83.2354 77.8932 87.021 77.1574C90.7967 76.4235 94.4641 78.8885 95.1999 82.6741C95.9358 86.4598 93.4707 90.1271 89.6851 90.863Z" fill="#3E3E3E"/>
<path d="M102.153 93.7874C85.6394 103.065 71.2401 105.864 52.444 103.45C50.8598 103.13 49.6887 104.037 49.8507 105.558C50.0428 107.393 50.1407 108.32 50.3327 110.154C50.4948 111.676 50.5831 112.924 53.5929 113.593C72.9806 116.088 87.8457 113.198 104.877 103.625C107.037 102.145 107.043 100.694 106.622 99.2128C106.113 97.44 105.856 96.5437 105.347 94.7709C104.929 93.3095 103.512 92.8959 102.153 93.7874ZM53.2522 111.047C52.7064 110.937 52.2261 110.424 52.1675 109.911C51.9636 108.068 51.9944 107.857 51.7906 106.014C51.7339 105.511 52.1237 105.188 52.6597 105.3C54.9835 105.774 56.1487 105.949 58.4737 106.217C58.8121 108.804 58.8446 109.395 59.183 111.982C56.8165 111.712 55.6276 111.521 53.2522 111.047ZM61.1658 112.183C60.8155 109.587 60.7751 109.009 60.4149 106.415C63.52 106.676 65.0701 106.714 68.1573 106.618C68.5769 109.2 68.6509 109.792 69.0626 112.386C65.914 112.484 64.3323 112.442 61.1658 112.183ZM71.0193 112.294C70.5878 109.704 70.5039 109.113 70.0724 106.523C73.1423 106.338 74.6698 106.154 77.6901 105.608C78.1811 108.186 78.2947 108.771 78.7876 111.36C75.7078 111.917 74.1505 112.107 71.0193 112.294ZM80.7002 110.988C80.1895 108.413 80.0758 107.828 79.5631 105.244C82.1915 104.692 83.4823 104.348 86.0487 103.531C86.609 106.096 86.7524 106.675 87.3226 109.238C84.6986 110.077 83.3781 110.426 80.7002 110.988ZM89.1772 108.62C88.607 106.057 88.4537 105.48 87.8736 102.919C90.4147 102.024 91.6727 101.512 94.1321 100.355C94.7598 102.897 94.931 103.46 95.5588 106.002C93.0537 107.188 91.7778 107.714 89.1772 108.62ZM104.839 99.6724C104.977 100.17 104.714 100.828 104.259 101.132C101.561 102.912 100.184 103.714 97.3473 105.15C96.6997 102.612 96.5186 102.051 95.8829 99.521C98.6644 98.1165 100.023 97.3279 102.658 95.5919C103.113 95.2875 103.583 95.4326 103.731 95.9284C104.23 97.7031 104.338 97.8878 104.839 99.6724Z" fill="#3E3E3E"/>
<path d="M93.2653 80.9504C93.6659 83.0117 92.3167 85.012 90.2554 85.4127C88.1941 85.8134 86.1938 84.4641 85.7931 82.4028C85.3924 80.3415 86.7417 78.3412 88.803 77.9405C90.8643 77.5399 92.8646 78.8891 93.2653 80.9504Z" fill="#3E3E3E"/>
<path d="M19.1118 58.6667V64.889" stroke="#ED1B2F" stroke-width="1.6" stroke-linecap="round" stroke-linejoin="round"/>
<path d="M16 61.7773H22.2222" stroke="#ED1B2F" stroke-width="1.6" stroke-linecap="round" stroke-linejoin="round"/>
<path d="M44 24V32" stroke="#ED1B2F" stroke-width="1.6" stroke-linecap="round" stroke-linejoin="round"/>
<path d="M40 28H48" stroke="#ED1B2F" stroke-width="1.6" stroke-linecap="round" stroke-linejoin="round"/>
<path d="M128.445 50.6667V56.889" stroke="#ED1B2F" stroke-width="1.6" stroke-linecap="round" stroke-linejoin="round"/>
<path d="M125.333 53.7773H131.556" stroke="#ED1B2F" stroke-width="1.6" stroke-linecap="round" stroke-linejoin="round"/>
<path d="M90.1646 32.6265L87.4015 39.8458C87.2085 40.3501 87.3613 40.9207 87.7799 41.263C87.8849 41.3478 88.0007 41.4135 88.1221 41.46C88.4863 41.5994 88.9036 41.5628 89.2446 41.3435L95.667 37.213L90.1646 32.6265Z" fill="#ED1B2F"/>
<path d="M123.821 14.3267C123.56 13.936 123.103 13.7218 122.636 13.7768L80.6133 18.6621C80.1164 18.72 79.7029 19.0685 79.559 19.547C79.4161 20.0277 79.5733 20.5447 79.956 20.8643L88.4186 27.9186L115.939 18.1253L92.4955 31.3153L106.678 43.1376C106.784 43.2245 106.904 43.2952 107.031 43.344C107.243 43.4251 107.475 43.4479 107.703 43.4067C108.068 43.3393 108.385 43.1127 108.567 42.7914L123.869 15.6334C124.099 15.222 124.081 14.719 123.821 14.3267Z" fill="#ED1B2F"/>
</g>
<defs>
<filter id="filter0_f_997_9783" x="-5.6001" y="130.4" width="168" height="64" filterUnits="userSpaceOnUse" color-interpolation-filters="sRGB">
<feFlood flood-opacity="0" result="BackgroundImageFix"/>
<feBlend mode="normal" in="SourceGraphic" in2="BackgroundImageFix" result="shape"/>
<feGaussianBlur stdDeviation="10" result="effect1_foregroundBlur_997_9783"/>
</filter>
<clipPath id="clip0_997_9783">
<rect width="160" height="160" fill="white"/>
</clipPath>
</defs>
</svg>
