<svg width="64" height="64" viewBox="0 0 64 64" fill="none" xmlns="http://www.w3.org/2000/svg">
<path d="M58.3323 43.0007C51.4142 56.4128 36.2575 62.3602 24.4787 56.2849C12.6997 50.2095 8.75904 34.4117 15.6769 20.9996C22.5947 7.5875 37.7514 1.63996 49.5303 7.71539C61.3093 13.7908 65.2501 29.5886 58.3323 43.0007Z" fill="#FFF5F5"/>
<mask id="mask0_1424_3748" style="mask-type:luminance" maskUnits="userSpaceOnUse" x="0" y="7" width="47" height="47">
<path d="M40.9222 7.27145L0.783325 12.9126L6.42447 53.0515L46.5633 47.4103L40.9222 7.27145Z" fill="white"/>
</mask>
<g mask="url(#mask0_1424_3748)">
<path d="M30.4537 42.0003L20.4189 43.4106C19.7257 43.508 19.2434 44.1479 19.3409 44.8412L19.6934 47.3499C19.9851 49.4249 21.9102 50.8757 23.9853 50.584L29.0027 49.8789C31.0777 49.5873 32.5285 47.6621 32.2368 45.587L31.8843 43.0783C31.7868 42.3851 31.1469 41.9029 30.4537 42.0003Z" fill="#FFDFDF"/>
<path d="M23.5705 29.4318C25.9384 29.099 27.5881 26.9097 27.2553 24.5419C26.9225 22.1741 24.7333 20.5243 22.3654 20.8571C19.9976 21.1899 18.3479 23.3792 18.6807 25.747C19.0134 28.1148 21.2027 29.7645 23.5705 29.4318Z" fill="#FFDFDF"/>
<path d="M37.5902 20.9666C35.7601 14.4061 29.4686 9.77733 22.6486 9.94277C18.2757 10.0457 14.1655 12.0176 11.3671 15.3145C8.57045 18.6239 7.31381 22.9704 7.91669 27.2602C8.70997 32.9048 12.54 37.5853 17.9097 39.4784C18.3411 39.6352 18.6644 40.0247 18.7297 40.4888L18.8443 41.3041C19.2119 41.0989 19.6278 40.9638 20.0668 40.9021L30.1015 39.4918C30.5406 39.4301 30.9777 39.4454 31.3876 39.5413L31.2731 38.726C31.2078 38.2618 31.3988 37.8001 31.7827 37.5287C37.0739 33.7663 39.3458 27.2689 37.5902 20.9666ZM30.6711 25.3415L29.8201 25.461C29.7757 26.4278 29.5299 27.3538 29.1141 28.1899L29.7999 28.7067C30.3588 29.1278 30.4703 29.9215 30.0492 30.4805C29.8387 30.7599 29.5349 30.9275 29.2141 30.9726C28.8932 31.0177 28.555 30.9402 28.2756 30.7297L27.5898 30.2129C26.9007 30.843 26.0783 31.3345 25.1612 31.6436L25.2809 32.4947C25.3783 33.188 24.8961 33.8279 24.2028 33.9253C23.5095 34.0228 22.8696 33.5406 22.7722 32.8473L22.6526 31.9962C21.6858 31.9518 20.7597 31.7061 19.9237 31.2903L19.4069 31.9761C19.1964 32.2556 18.8926 32.4232 18.5718 32.4683C18.2509 32.5134 17.9127 32.4359 17.6333 32.2254C17.0745 31.8043 16.9629 31.0106 17.384 30.4517L17.9008 29.7658C17.2707 29.0768 16.7792 28.2543 16.4701 27.3373L15.619 27.4569C14.9258 27.5543 14.2858 27.0721 14.1884 26.3788C14.091 25.6856 14.5732 25.0456 15.2665 24.9482L16.1175 24.8286C16.1619 23.8618 16.4077 22.9358 16.8234 22.0998L16.1376 21.583C15.5788 21.1618 15.4673 20.3681 15.8883 19.8092C16.3094 19.2503 17.1031 19.1389 17.6621 19.5599L18.3479 20.0767C19.0369 19.4466 19.8594 18.9551 20.7764 18.646L20.6569 17.7949C20.5594 17.1016 21.0416 16.4617 21.7349 16.3643C22.4282 16.2669 23.0681 16.7491 23.1655 17.4424L23.2851 18.2934C24.2518 18.3378 25.1779 18.5836 26.0139 18.9993L26.5308 18.3135C26.9518 17.7547 27.7456 17.6431 28.3045 18.0642C28.8635 18.4853 28.9749 19.2791 28.5538 19.838L28.037 20.5238C28.6671 21.2128 29.1586 22.0353 29.4677 22.9523L30.3188 22.8327C31.0121 22.7353 31.6519 23.2175 31.7494 23.9108C31.8468 24.6041 31.3644 25.244 30.6711 25.3415Z" fill="#FFDFDF"/>
<path d="M5.58416 28.8669L4.32983 29.0432C3.63655 29.1406 2.99663 28.6584 2.8992 27.9651C2.80177 27.2718 3.28398 26.6319 3.97726 26.5345L5.23159 26.3582C5.92485 26.2608 6.5648 26.743 6.66224 27.4362C6.75968 28.1295 6.27744 28.7694 5.58416 28.8669Z" fill="#FFDFDF"/>
<path d="M8.98287 15.7272C8.66191 15.7723 8.32383 15.6949 8.04441 15.4843L7.03295 14.7221C6.47417 14.3011 6.3626 13.5073 6.78367 12.9484C7.20473 12.3894 7.99849 12.278 8.55743 12.6991L9.56889 13.4613C10.1277 13.8823 10.2392 14.6761 9.81817 15.235C9.60761 15.5144 9.30372 15.6821 8.98287 15.7272Z" fill="#FFDFDF"/>
<path d="M11.7107 41.5716C11.3897 41.6168 11.0516 41.5393 10.7722 41.3288C10.2134 40.9077 10.1018 40.1139 10.5229 39.555L11.2851 38.5435C11.7062 37.9848 12.4999 37.8732 13.0588 38.2943C13.6178 38.7153 13.7292 39.5091 13.3081 40.068L12.546 41.0795C12.3354 41.3589 12.0315 41.5266 11.7107 41.5716Z" fill="#FFDFDF"/>
<path d="M41.9602 23.7541L40.7059 23.9304C40.0126 24.0278 39.3727 23.5456 39.2752 22.8524C39.1778 22.1591 39.66 21.5191 40.3533 21.4217L41.6076 21.2454C42.3009 21.148 42.9408 21.6302 43.0382 22.3235C43.1357 23.0168 42.6535 23.6567 41.9602 23.7541Z" fill="#FFDFDF"/>
<path d="M33.8169 12.2362C33.4959 12.2813 33.1578 12.2039 32.8785 11.9933C32.3196 11.5723 32.2081 10.7785 32.6292 10.2196L33.3914 9.2081C33.8124 8.6493 34.6062 8.53775 35.1651 8.95881C35.724 9.37988 35.8355 10.1736 35.4144 10.7326L34.6522 11.744C34.4417 12.0235 34.1378 12.1911 33.8169 12.2362Z" fill="#FFDFDF"/>
</g>
<path d="M49.1503 38.9696L50.3332 39.1995C50.5364 39.2391 50.7333 39.1063 50.7728 38.903L51.4626 35.3544C51.5021 35.1511 51.3693 34.9543 51.166 34.9147L47.9855 34.2965L48.1439 33.4817C48.3102 32.6265 47.7497 31.7955 46.8945 31.6293C46.0393 31.4631 45.2082 32.0236 45.042 32.8788L44.8836 33.6936L41.7031 33.0753C41.4998 33.0358 41.303 33.1686 41.2635 33.3719L40.6453 36.5523L39.8305 36.394C38.9753 36.2278 38.1443 36.7883 37.9781 37.6435C37.8118 38.4987 38.3724 39.3297 39.2276 39.4959L40.0423 39.6543L39.4241 42.8347C39.3846 43.038 39.5173 43.2349 39.7206 43.2744L43.2692 43.9642C43.4725 44.0037 43.6694 43.871 43.7089 43.6676L43.9388 42.4848C44.0261 42.0355 44.4627 41.7411 44.9119 41.8284C45.3612 41.9158 45.6556 42.3523 45.5683 42.8015L45.3384 43.9844C45.2989 44.1877 45.4316 44.3846 45.6349 44.4241L49.1835 45.1138C49.3868 45.1534 49.5837 45.0206 49.6232 44.8172L50.313 41.2687C50.3525 41.0654 50.2197 40.8686 50.0164 40.829L48.8336 40.5991C48.3843 40.5118 48.0899 40.0752 48.1772 39.626C48.2645 39.1767 48.701 38.8823 49.1503 38.9696Z" fill="#FFDFDF"/>
</svg>
